<svg width="76" height="76" viewBox="0 0 76 76" fill="none" xmlns="http://www.w3.org/2000/svg">
<g clip-path="url(#clip0_8_550)">
<path d="M43.3465 5.5813H13.5515C12.199 5.5813 11.1025 6.68374 11.1025 8.04358C11.1025 9.40342 12.199 10.5059 13.5515 10.5059H26.2817C23.6008 12.1945 21.1796 14.2677 19.0947 16.6601H2.44902C1.09651 16.6602 0 17.7628 0 19.1227C0 20.4825 1.09651 21.5849 2.44902 21.5849H15.5519C12.7264 26.4026 11.1024 32.0139 11.1024 37.9999C11.1024 44.9652 13.2991 51.4243 17.0316 56.7144H10.0829C8.73041 56.7144 7.63391 57.8169 7.63391 59.1767C7.63391 60.5366 8.73041 61.639 10.0829 61.639H21.3062C22.8368 63.0827 24.5031 64.3737 26.2817 65.4938H2.70162C1.34911 65.4938 0.252608 66.5962 0.252608 67.9561C0.252608 69.3159 1.34911 70.4184 2.70162 70.4184H43.3465C61.126 70.4184 75.5904 55.8753 75.5904 37.9998C75.5904 20.1242 61.1259 5.5813 43.3465 5.5813ZM43.3465 65.4941C28.2679 65.4941 16.0007 53.1604 16.0007 38C16.0007 22.8397 28.2679 10.506 43.3465 10.506C58.425 10.506 70.6922 22.8397 70.6922 37.9999C70.6922 53.1601 58.4251 65.4941 43.3465 65.4941Z" fill="#D10014"/>
<path d="M43.3465 17.8878C32.3163 17.8878 23.3426 26.9101 23.3426 38.0001C23.3426 44.6134 26.5344 50.4911 31.4501 54.159C31.4952 54.1973 31.5399 54.2359 31.5885 54.271C31.6431 54.311 31.6991 54.3482 31.7556 54.383C35.0279 56.7299 39.0296 58.1121 43.3465 58.1121C47.6634 58.1121 51.665 56.7299 54.9374 54.383C54.9941 54.3482 55.0499 54.311 55.1045 54.271C55.153 54.2356 55.1978 54.197 55.2429 54.159C60.1585 50.4911 63.3504 44.6135 63.3504 38.0001C63.3504 26.9103 54.3767 17.8878 43.3465 17.8878ZM45.7955 23.0132C50.5748 23.8001 54.6067 26.849 56.7635 31.0279L50.4216 33.0998C49.3201 31.4969 47.6944 30.2858 45.7957 29.7171V23.0132H45.7955ZM47.0441 37.9999C47.0441 40.0498 45.3854 41.7175 43.3465 41.7175C41.3076 41.7175 39.6489 40.05 39.6489 37.9999C39.6489 35.95 41.3076 34.2823 43.3465 34.2823C45.3854 34.2823 47.0441 35.95 47.0441 37.9999ZM40.8973 23.0132V29.7171C38.9983 30.2858 37.3729 31.4969 36.2713 33.0998L29.9295 31.0279C32.0865 26.849 36.1183 23.7999 40.8973 23.0132ZM32.6084 48.6706C29.9098 45.9257 28.2408 42.1553 28.2408 37.9999C28.2408 37.2218 28.2996 36.4572 28.4123 35.7103L34.7562 37.7827C34.7544 37.8552 34.7506 37.927 34.7506 37.9999C34.7506 39.9735 35.4135 41.7937 36.5252 43.2503L32.6084 48.6706ZM43.3465 53.1874C40.9103 53.1874 38.6075 52.6041 36.5677 51.5696L40.4854 46.1484C41.381 46.4672 42.3436 46.6425 43.3465 46.6425C44.3494 46.6425 45.312 46.4672 46.2076 46.1484L50.1253 51.5696C48.0855 52.6038 45.7827 53.1874 43.3465 53.1874ZM54.0845 48.6706L50.1677 43.2504C51.2794 41.7938 51.9423 39.9737 51.9423 38.0001C51.9423 37.9272 51.9387 37.8553 51.9367 37.7829L58.2805 35.7104C58.3949 36.4682 58.4522 37.2336 58.4521 38.0001C58.4522 42.1553 56.7833 45.9256 54.0845 48.6706Z" fill="#D10014"/>
</g>
<defs>
<clipPath id="clip0_8_550">
<rect width="75.5905" height="76" fill="white"/>
</clipPath>
</defs>
</svg>
